<svg width="24" height="24" viewBox="0 0 24 24" fill="none" xmlns="http://www.w3.org/2000/svg">
<path d="M16.875 19.6493C17.3945 19.4234 17.896 19.158 18.375 18.8555V22.5C18.375 22.6989 18.296 22.8897 18.1553 23.0303C18.0147 23.171 17.8239 23.25 17.625 23.25C17.4261 23.25 17.2353 23.171 17.0947 23.0303C16.954 22.8897 16.875 22.6989 16.875 22.5V19.6493ZM11.3383 8.64704C11.2919 8.73394 11.2631 8.82912 11.2536 8.92715C11.244 9.02517 11.2538 9.12412 11.2825 9.21834C11.3112 9.31256 11.3581 9.40021 11.4207 9.47629C11.4832 9.55236 11.5602 9.61537 11.6471 9.66172L16.0313 12L17.625 11.15L12.3529 8.33823C12.266 8.29186 12.1709 8.26306 12.0728 8.25349C11.9748 8.24391 11.8758 8.25374 11.7816 8.28242C11.6874 8.31109 11.5997 8.35806 11.5237 8.42062C11.4476 8.48318 11.3846 8.56012 11.3383 8.64704ZM23.6029 8.33823L12.3529 2.33823C12.2443 2.2803 12.1231 2.25 12 2.25C11.8769 2.25 11.7557 2.2803 11.6471 2.33823L0.397064 8.33823C0.277123 8.4022 0.176821 8.49755 0.106882 8.61411C0.0369442 8.73067 0 8.86405 0 8.99998C0 9.13591 0.0369442 9.26928 0.106882 9.38584C0.176821 9.5024 0.277123 9.59776 0.397064 9.66172L2.625 10.85V15.5113C2.62539 15.8355 2.73042 16.1509 2.92447 16.4107C3.66742 17.3993 6.51746 20.625 12 20.625C13.6754 20.6403 15.3357 20.3065 16.875 19.6448V12.45L16.0313 12L12 14.15L3.73467 9.74181L3.72931 9.73894L2.34375 8.99998L12 3.84995L21.6562 8.99998L20.2707 9.73894L20.2653 9.74181L17.625 11.15L17.9779 11.3382C18.0972 11.403 18.1969 11.4986 18.2668 11.6149C18.3366 11.7313 18.374 11.8643 18.375 12V18.85C19.4121 18.2027 20.3264 17.3769 21.0754 16.4108C21.2695 16.151 21.3746 15.8356 21.375 15.5113V10.85L23.6029 9.66172C23.7229 9.59775 23.8232 9.50239 23.8931 9.38584C23.9631 9.26928 24 9.1359 24 8.99997C24 8.86404 23.9631 8.73067 23.8931 8.61411C23.8232 8.49755 23.7229 8.40219 23.6029 8.33823V8.33823Z" fill="#726B76"/>
</svg>
